<?xml version="1.0" standalone="no"?>
<!DOCTYPE svg PUBLIC "-//W3C//DTD SVG 20010904//EN"
 "http://www.w3.org/TR/2001/REC-SVG-20010904/DTD/svg10.dtd">
<svg version="1.0" xmlns="http://www.w3.org/2000/svg"
 width="290.000000pt" height="103.000000pt" viewBox="0 0 290.000000 103.000000"
 preserveAspectRatio="xMidYMid meet">

<g transform="translate(0.000000,103.000000) scale(0.100000,-0.100000)"
fill="#ffffff" stroke="none">
<path d="M10 510 l0 -510 1445 0 1445 0 0 323 0 322 -75 -3 -75 -4 -2 -226 -3
-227 -67 -3 -68 -3 -2 228 -3 228 -65 3 c-50 2 -70 8 -87 24 -30 28 -29 41 8
72 31 26 31 26 223 26 136 0 195 -3 204 -12 9 -9 12 20 12 130 l0 142 -1445 0
-1445 0 0 -510z m1114 229 l26 -31 -2 -261 -3 -262 -47 -3 c-89 -6 -129 35
-254 253 l-69 120 -5 -185 -5 -185 -65 0 -65 0 -3 272 c-3 307 -4 303 71 303
82 0 118 -38 240 -250 l72 -125 5 167 c5 159 6 168 29 192 32 34 44 33 75 -5z
m255 -4 l31 -36 0 -247 c0 -136 -4 -253 -9 -260 -5 -9 -27 -12 -72 -10 l-64 3
-3 259 -2 260 32 33 c17 18 37 33 44 33 7 0 26 -16 43 -35z m250 0 c29 -34 31
-40 31 -121 l0 -86 33 7 c68 14 107 64 107 137 0 23 9 42 32 65 18 18 37 33
44 33 7 0 26 -16 44 -36 29 -34 31 -40 25 -88 -10 -72 -41 -132 -80 -156 l-34
-21 43 -43 c49 -49 104 -154 108 -206 l3 -35 -71 -3 -71 -3 -22 59 c-26 73
-79 144 -123 165 l-33 16 -2 -97 c-4 -149 -1 -143 -81 -140 l-67 3 -3 259 -2
260 32 33 c17 18 37 33 44 33 7 0 26 -16 43 -35z m-1261 9 c32 -22 94 -151
135 -281 36 -114 63 -255 52 -273 -3 -5 -37 -10 -75 -10 l-69 0 -6 48 c-10 77
-4 73 -112 70 l-98 -3 -3 -35 c-6 -81 -5 -80 -82 -80 l-70 0 0 43 c0 132 120
464 186 516 33 26 109 29 142 5z m2011 -10 c17 -14 31 -29 31 -33 0 -5 -11
-20 -25 -35 -22 -23 -31 -26 -94 -26 -83 0 -101 -13 -101 -71 l0 -39 75 0 c68
0 77 -2 107 -29 l33 -30 -29 -30 c-28 -29 -34 -31 -108 -31 l-78 0 0 -39 c0
-69 3 -71 92 -71 65 0 85 -4 109 -21 35 -25 36 -38 4 -73 -24 -26 -26 -26
-160 -26 -131 0 -137 1 -160 25 l-25 24 0 235 c0 129 3 242 6 251 12 32 64 44
181 45 106 0 113 -1 142 -26z"/>
<path d="M279 579 c-6 -12 -22 -52 -34 -90 l-24 -69 75 0 74 0 -24 63 c-52
135 -48 130 -67 96z"/>
</g>
</svg>
